<?xml version="1.0" encoding="UTF-8" standalone="no"?>
<!-- Created with Inkscape (http://www.inkscape.org/) -->

<svg
   width="210mm"
   height="297mm"
   viewBox="0 0 210 297"
   version="1.1"
   id="svg1"
   sodipodi:docname="logo_v3.svg"
   inkscape:version="1.4.2 (f4327f4, 2025-05-13)"
   xmlns:inkscape="http://www.inkscape.org/namespaces/inkscape"
   xmlns:sodipodi="http://sodipodi.sourceforge.net/DTD/sodipodi-0.dtd"
   xmlns="http://www.w3.org/2000/svg"
   xmlns:svg="http://www.w3.org/2000/svg">
  <sodipodi:namedview
     id="namedview1"
     pagecolor="#ffffff"
     bordercolor="#000000"
     borderopacity="0.25"
     inkscape:showpageshadow="2"
     inkscape:pageopacity="0.0"
     inkscape:pagecheckerboard="0"
     inkscape:deskcolor="#d1d1d1"
     inkscape:document-units="mm"
     inkscape:zoom="0.71891835"
     inkscape:cx="396.42889"
     inkscape:cy="560.56435"
     inkscape:window-width="1273"
     inkscape:window-height="1000"
     inkscape:window-x="638"
     inkscape:window-y="0"
     inkscape:window-maximized="0"
     inkscape:current-layer="layer1" />
  <defs
     id="defs1">
    <inkscape:path-effect
       effect="spiro"
       id="path-effect8"
       is_visible="true"
       lpeversion="1" />
    <inkscape:path-effect
       effect="spiro"
       id="path-effect7"
       is_visible="true"
       lpeversion="1" />
  </defs>
  <g
     inkscape:label="Layer 1"
     inkscape:groupmode="layer"
     id="layer1">
    <ellipse
       style="fill:#959595;fill-opacity:1;stroke-width:0.264583"
       id="path1"
       cx="117.76952"
       cy="122.5539"
       rx="29.442379"
       ry="38.275093" />
    <ellipse
       style="fill:#959595;fill-opacity:1;stroke-width:0.264583"
       id="path2"
       cx="102.12825"
       cy="80.230484"
       rx="7.9126391"
       ry="8.8327131" />
    <path
       sodipodi:type="star"
       style="fill:#959595;fill-opacity:1;stroke-width:0.264583"
       id="path3-8"
       inkscape:flatsided="false"
       sodipodi:sides="5"
       sodipodi:cx="102.31227"
       sodipodi:cy="73.605949"
       sodipodi:r1="5.5539412"
       sodipodi:r2="2.7112682"
       sodipodi:arg1="-0.69855835"
       sodipodi:arg2="-0.14031604"
       inkscape:rounded="0"
       inkscape:randomized="0"
       d="m 106.56531,70.03413 -1.56842,3.192632 2.02665,3.320318 -3.52105,-0.505079 -2.53154,2.953487 -0.6077,-3.504789 -3.591225,-1.494962 3.145461,-1.661 0.312044,-3.877424 2.55171,2.478234 z"
       inkscape:transform-center-x="0.53158325"
       inkscape:transform-center-y="-3.4316141"
       transform="matrix(1.1701257,0,0,1.5605356,-17.806009,-39.427578)" />
    <path
       style="fill:#959595;fill-opacity:1;stroke-width:0.264583"
       d="M 130.65056,156.04461 Z"
       id="path7"
       inkscape:path-effect="#path-effect7"
       inkscape:original-d="m 130.65056,156.04461 c 0,0.24535 0,0.4907 0,0 z" />
    <path
       style="fill:#959595;fill-opacity:1;stroke-width:2.64583333;stroke-dasharray:none"
       d="m 124.02602,160.09294 c 2.91357,3.97076 6.9326,7.12146 11.48408,9.00291 4.55148,1.88144 9.62213,2.48814 14.489,1.73358 4.86688,-0.75455 9.51577,-2.86815 13.28388,-6.03946 3.76811,-3.1713 6.64443,-7.39106 8.21888,-12.05763 2.14469,-6.35674 1.85253,-13.32065 0.42752,-19.87635 -1.425,-6.5557 -3.93468,-12.8154 -6.2061,-19.12797 -2.27142,-6.31257 -4.32915,-12.78675 -4.7896,-19.479714 -0.46045,-6.692969 0.80299,-13.694936 4.6797,-19.170241 1.2634,-1.784372 2.81395,-3.405416 4.71982,-4.47678 1.90587,-1.071365 4.19547,-1.55552 6.32107,-1.043666 0.24605,0.05925 0.49062,0.131619 0.74282,0.152768 0.2522,0.02115 0.51802,-0.01345 0.7293,-0.152768 0.11992,-0.07907 0.21851,-0.190182 0.28275,-0.318662 0.0642,-0.12848 0.094,-0.274014 0.0853,-0.417396"
       id="path8"
       inkscape:path-effect="#path-effect8"
       inkscape:original-d="m 124.02602,160.09294 c 15.57993,-2.45354 31.52788,-4.90707 47.47584,-7.3606 15.94795,-2.45353 -3.6803,-51.76952 -5.88848,-77.654275 -2.20818,-25.884756 7.11524,-3.680296 11.04089,-5.520446 3.92565,-1.840148 0.98142,0 1.47212,0 0.49071,0 0.24535,-0.490705 0.36803,-0.736058"
       transform="translate(0,0.36802974)" />
    <ellipse
       style="fill:#959595;fill-opacity:1;stroke-width:2.64583;stroke-dasharray:none"
       id="path9"
       cx="180.51859"
       cy="69.925652"
       rx="2.0241635"
       ry="2.5762081" />
  </g>
</svg>
